Simulation
nRows=48
nColumns=15
endheader
time  TH_x TH_y TH_z SC_y  SC_z  SC_x  AC_y  AC_z  AC_x  GH_y  GH_z  GH_yy  EL_x  PS_y
2.8725  0.000000  0.000000  0.000000  -33.28803313214763  -1.8543523657022845  -2.020829372718718  46.76369964240699  -6.041657352082467  1.2949869807543493  -1.357224227516962  21.164398501215206  3.441223088986121  14.178557777399552  120.000000
2.92995  0.000000  0.000000  0.000000  -34.17463042706656  -0.4464676150328946  -2.834412480395635  45.26094615347005  -3.2266324823740975  0.7735790319882446  8.559392336336133  16.225292919161134  -1.4252304169992223  14.523220373507696  120.000000
2.9874  0.000000  0.000000  0.000000  -35.31478985672197  0.628650499545239  -3.5430518086583827  44.06732969369496  -0.7888413673216303  0.5569586787500953  21.350006349688964  12.594921527657387  -9.670014778680628  14.941266356440604  120.000000
3.0448500000000003  0.000000  0.000000  0.000000  -36.62153384223029  1.4160969828258207  -4.039663215877847  43.19196573804649  1.221922887341144  0.5043874634147762  36.82878711515429  10.24740653252061  -21.222071681753864  15.396583701049877  120.000000
3.1023  0.000000  0.000000  0.000000  -38.021354970282424  2.0140596838638523  -4.313155807439332  42.60507881180852  2.82256076587027  0.5325176550171304  53.35781164938711  9.013983441316334  -34.47380077740181  15.859682413835635  120.000000
3.15975  0.000000  0.000000  0.000000  -39.43819284160453  2.485417014379237  -4.399066448539155  42.250958604466575  4.074585012311657  0.5849397357815564  68.36148902332104  8.58589961795562  -46.824964534010725  16.301515866990602  120.000000
3.2172  0.000000  0.000000  0.000000  -40.80168234308013  2.8632595702164223  -4.342191619823727  42.066189513780635  5.049719818044256  0.632644387440221  80.21545153113235  8.615844934909095  -56.58636714147283  16.707475384467006  120.000000
3.2746500000000003  0.000000  0.000000  0.000000  -42.04049251674593  3.1596515597496806  -4.177452842942623  41.98530891497518  5.808216738456103  0.6535502556404282  88.79437496102422  8.831815375986425  -63.532389006287126  17.079276473779288  120.000000
3.3321  0.000000  0.000000  0.000000  -43.08579932737229  3.3844129016700237  -3.935904703648758  41.95172291366971  6.394037500102834  0.6225563813773696  94.72197824371128  9.07402179482557  -68.17907313162931  17.42806419248616  120.000000
3.38955  0.000000  0.000000  0.000000  -43.88850163994132  3.5507198443912182  -3.6436764038640765  41.921071915119406  6.8306730681605625  0.5174559855340621  98.67194283058384  9.273628385819071  -71.11441806238912  17.767129621608188  120.000000
3.447  0.000000  0.000000  0.000000  -44.42523485240435  3.671689748156653  -3.324306485707957  41.87173472273403  7.122354208878538  0.32938718035747916  101.113211209182  9.420621436873034  -72.75912945076706  18.105442507011695  120.000000
3.5044500000000003  0.000000  0.000000  0.000000  -44.68997851688408  3.756701605197043  -3.0010543445688493  41.811519681844246  7.2590673740373  0.0722580794952377  102.3186760136351  9.529293759462355  -73.3721022631147  18.45032166556911  120.000000
3.5619  0.000000  0.000000  0.000000  -44.691141340094006  3.8026003189456623  -2.6939832471157015  41.76274201957428  7.225000297352787  -0.21433128771861068  102.4397260170475  9.606528021390682  -73.1188500539859  18.804975804042225  120.000000
3.61935  0.000000  0.000000  0.000000  -44.44861153357992  3.795190911978148  -2.418272266955617  41.75103690880614  7.008134919424473  -0.4736046013949392  101.55338814641354  9.633164973850361  -72.10380710168687  19.16826255039774  120.000000
3.6768  0.000000  0.000000  0.000000  -43.976512711251594  3.7318640597909645  -2.1903035717422186  41.81872680296185  6.605638042235495  -0.6485915025294905  99.66509980638203  9.576606625894433  -70.3630037902229  19.540244917473004  120.000000
3.7342500000000003  0.000000  0.000000  0.000000  -43.29094943306754  3.621331983178463  -2.028315592454544  42.024473100612276  6.0269796504025965  -0.6926226146199318  96.63501749234318  9.41079387365007  -67.78793389293422  19.92198618717738  120.000000
3.7917  0.000000  0.000000  0.000000  -42.4260980238461  3.46434218853936  -1.9431029949974503  42.411826380401  5.291172480764421  -0.5668583361754739  92.13174450867496  9.126130519620256  -64.06971809478254  20.31030278200407  120.000000
3.84915  0.000000  0.000000  0.000000  -41.42473937823136  3.2475530941807857  -1.936477925021223  43.00204245275311  4.418744334658095  -0.2374319603069065  85.6283770377662  8.746984926286972  -58.66988099426591  20.701859758384742  120.000000
3.9066  0.000000  0.000000  0.000000  -40.326651137049986  2.96583658248569  -2.0101836802872053  43.80527168479618  3.427971443424992  0.3209299448956382  76.42970507426854  8.358934079022719  -50.839079843411525  21.10053249852393  120.000000
3.9640500000000003  0.000000  0.000000  0.000000  -39.178931605335904  2.60906600041493  -2.16960765515939  44.82337358450375  2.3431765631639343  1.108384744219453  63.79324249098805  8.14218996492219  -39.756954636568025  21.505856274570235  120.000000
4.0215  0.000000  0.000000  0.000000  -38.03788385265798  2.147528115017782  -2.418490636968696  46.02973383110074  1.1770127374803239  2.122557427110407  47.80417576492116  8.393411480093997  -25.415385678875737  21.913690055562792  120.000000
4.07895  0.000000  0.000000  0.000000  -36.97384497560861  1.5551221837123452  -2.766206731328782  47.39220195899284  -0.09317148093506601  3.373508632603703  30.622704830901593  9.489365516962753  -9.890443105045156  22.31487601741044  120.000000
4.1364  0.000000  0.000000  0.000000  -36.05515816347427  0.7882126887224156  -3.240107641109765  48.90087679772547  -1.4888640695447009  4.857492286053855  15.521567981393417  11.703220270375063  3.6120956296886813  22.680984312780662  120.000000
4.19385  0.000000  0.000000  0.000000  -35.30827647711764  -0.17875037922414827  -3.8619096180804044  50.545084299166135  -3.0341702096680616  6.578389366056383  4.131179668745189  15.05628388755374  13.532200747384604  22.987862207658655  120.000000
4.2513000000000005  0.000000  0.000000  0.000000  -34.70634963938901  -1.34458962536999  -4.621586849271021  52.29883533385152  -4.755595783600305  8.552217457887924  -3.9592416258780996  19.383611193001617  20.33025728600919  23.216748088538818  120.000000
4.30875  0.000000  0.000000  0.000000  -34.27380511086467  -2.6703365404354344  -5.54625813056668  54.128990555152086  -6.5802690922504175  10.822240335327718  -9.634526912431962  24.425427174845872  24.880252358687905  23.353650474999423  120.000000
4.3662  0.000000  0.000000  0.000000  -34.09840631903883  -4.049487727409116  -6.672838816368051  55.99205447059234  -8.306387347164206  13.407232659455696  -13.507076169177166  29.810280431647133  27.739058860606917  23.40519508332306  120.000000
4.42365  0.000000  0.000000  0.000000  -34.1740056892652  -5.342955664751491  -7.930503723083082  57.85714744367082  -9.65705205010208  16.186877593094362  -16.026182324734044  35.07579296023301  29.30284418005775  23.40717788896542  120.000000
4.4811  0.000000  0.000000  0.000000  -34.426784082136656  -6.3570162665231855  -9.145288110652487  59.713724964151815  -10.373895327364917  18.941517119783434  -17.51150240985598  39.78303094234683  29.827271782308756  23.41964462115923  120.000000
4.53855  0.000000  0.000000  0.000000  -34.85558021665365  -6.892838614142673  -10.104519481004669  61.56577329932236  -10.314900050280512  21.42558739469846  -18.15041383452577  43.659631185000414  29.43056197544376  23.495379519175664  120.000000
4.596  0.000000  0.000000  0.000000  -35.56993831507718  -6.762550050500246  -10.608811599745774  63.43115996677533  -9.53565424439567  23.505331772269574  -18.06960366400158  46.63875383963308  28.182376963587984  23.666076790264512  120.000000
4.65345  0.000000  0.000000  0.000000  -36.67479619678752  -5.80642819366048  -10.477443458976172  65.34002705674419  -8.310877978956064  25.238779971783803  -17.402144863626553  48.832605995191024  26.162218824525194  23.923440001200756  120.000000
4.7109000000000005  0.000000  0.000000  0.000000  -38.11323815029387  -3.991694555192646  -9.56864398586476  67.30729259106313  -6.954381092611942  26.765937752260733  -16.327888433976867  50.429720504286415  23.497265581397528  24.22273252007679  120.000000
4.76835  0.000000  0.000000  0.000000  -39.63861509165515  -1.462383974519717  -7.807140901494619  69.26615284576863  -5.626006734167324  28.13616223608384  -15.107598914102743  51.57446495057698  20.38595772684753  24.496430733359034  120.000000
4.8258  0.000000  0.000000  0.000000  -40.981034481003576  1.5095201750370317  -5.20222730639669  71.07355930437626  -4.409884865021833  29.292908367990044  -14.041349953990508  52.407081562993326  17.062130302918835  24.647296524376838  120.000000
4.88325  0.000000  0.000000  0.000000  -42.06460340280631  4.630902467959295  -1.8585751931108117  72.60249753672497  -3.4056989714816526  30.172955202519198  -13.305335844833257  53.078422354776365  13.71561553047904  24.61734841619556  120.000000
4.9407  0.000000  0.000000  0.000000  -43.003002541947026  7.647366614432789  2.061467045235072  73.79568811391474  -2.6817570549617504  30.742382727427277  -12.847629492268325  53.709330640792835  10.421065479212302  24.401595493577158  120.000000
4.99815  0.000000  0.000000  0.000000  -43.959654394261555  10.385021854415838  6.384607647184399  74.65300502971598  -2.2599578082952174  31.005013178327218  -12.492120032949687  54.38351193834796  7.179981673428405  24.017365467352633  120.000000
5.0556  0.000000  0.000000  0.000000  -45.03341166915156  12.767374985588082  10.949078071599715  75.18864540888909  -2.125972055306828  30.99548328589471  -12.0976050564756  55.13139138141519  4.007126135072808  23.49373661913612  120.000000
5.11305  0.000000  0.000000  0.000000  -46.219517561335394  14.789089020731616  15.606165423899894  75.41954554005677  -2.2394386387513445  30.76920972178988  -11.623297397567576  55.946723695010796  0.9505548358672974  22.85702403791421  120.000000
5.1705000000000005  0.000000  0.000000  0.000000  -47.45146768419214  16.4779722012801  20.21561153961036  75.37687714962215  -2.54064935615457  30.39261835868206  -11.111179407211552  56.80298204889466  -1.9178149722492768  22.143899986416645  120.000000
5.22795  0.000000  0.000000  0.000000  -48.653138976226785  17.86328757200268  24.63625422583223  75.11260568909098  -2.9612331512258905  29.931823934737913  -10.63010350355779  57.66541786727494  -4.530939254511735  21.404285175548015  120.000000
5.2854  0.000000  0.000000  0.000000  -49.76377924709785  18.96404099538509  28.72029653038648  74.69828555764518  -3.4354355307516093  29.443345309487682  -10.231076088981595  58.500076316235  -6.845367230658841  20.693566548008032  120.000000
5.34285  0.000000  0.000000  0.000000  -50.736405191113064  19.795204649052696  32.31329547829701  74.21292819899352  -3.9084446163786932  28.97043375379119  -9.928017924354103  59.27694979196805  -8.846213472094295  20.0563908507287  120.000000
5.4003  0.000000  0.000000  0.000000  -51.528213562178635  20.37597223047708  35.260787257326335  73.73127238344185  -4.3413270962169594  28.541008303479067  -9.703311139422896  59.9717200363992  -10.537313838332743  19.517762341033595  120.000000
5.45775  0.000000  0.000000  0.000000  -52.09702364838713  20.733023756419755  37.416641741748315  73.31692794235171  -4.710251940937352  28.169635034504918  -9.525237170434135  60.56256880893348  -11.934595284796561  19.081621990369875  120.000000
5.5152  0.000000  0.000000  0.000000  -52.40261889257444  20.89083176318906  38.653217746929094  73.01998606295476  -5.002669819039359  27.86158286711563  -9.36529675512426  61.03065974453538  -13.05301596640124  18.743170446394164  120.000000
5.57265  0.000000  0.000000  0.000000  -52.40703784638053  20.860567021407824  38.8724690790687  72.87333518676738  -5.212367110215903  27.61905725625632  -9.21226369078853  61.36132136543996  -13.895115764072123  18.50367130495111  120.000000
